<mxfile host="app.diagrams.net" modified="2024-05-18T09:13:20.952Z" agent="Mozilla/5.0 (Windows NT 10.0; Win64; x64) AppleWebKit/537.36 (KHTML, like Gecko) Chrome/124.0.0.0 Safari/537.36" version="24.4.4" etag="h9Jc6RdQfCRLGijxY9Og" type="github">
  <diagram name="第 1 页" id="O16tAwT8QuJ2MevCESec">
    <mxGraphModel>
      <root>
        <mxCell id="0" />
        <mxCell id="1" parent="0" />
      </root>
    </mxGraphModel>
  </diagram>
</mxfile>
